<svg width="404" height="404" viewBox="0 0 404 404" fill="none" xmlns="http://www.w3.org/2000/svg">
<g clip-path="url(#clip0_26_3)">
<path d="M113.188 383.161V383.462H322.119L316.391 383.161H304.03H261.219H113.188Z" fill="#0D85F2"/>
<path d="M322.119 362.358V383.462H322.421V368.991L322.119 362.358Z" fill="#0D85F2"/>
<path d="M150.874 362.056V362.358H322.119C318.307 360.758 311.5 362.056 307.346 362.056H272.374H150.874Z" fill="#0D85F2"/>
<path d="M266.344 135.338C215.416 218.021 163.921 300.357 113.188 383.161H322.119V362.358H150.573C188.719 299.347 228.414 237.281 266.492 174.23C266.554 161.271 267.063 148.284 266.344 135.338Z" fill="#0D85F2"/>
<path d="M134.292 69.9148C128.746 76.9689 113.973 89.84 113.973 89.84C113.629 88.413 113.791 211.924 113.791 248.094C134.03 248.096 154.269 248.091 174.509 248.096C199.718 209.04 224.456 168.772 249.461 129.006C241.345 128.912 233.195 129.021 225.186 128.98C203.841 161.521 186.805 191.019 162.878 226.982C153.458 227.472 144.023 227.291 134.594 227.291L134.292 69.9148Z" fill="#0D85F2"/>
<path d="M212.679 29.817V30.1184H213.584L212.679 29.817Z" fill="#0D85F2"/>
<path d="M206.951 28.9125V29.214H207.855L206.951 28.9125Z" fill="#0D85F2"/>
<path d="M206.951 28.611V28.9125H207.855L206.951 28.611Z" fill="#0D85F2"/>
<path d="M90.2751 28.611C90.5312 28.9451 111.864 49.3739 111.999 49.4354C155.275 51.2709 199.592 41.7248 240.115 60.6769C267.808 74.0854 286.764 99.4879 295.994 128.403C297.977 134.619 299.901 140.963 301.04 147.397C301.401 149.434 301.177 155.528 301.174 155.693C301.174 155.693 299.44 158.875 299.267 159.155C263.285 220.917 222.999 280.242 187.354 342.158L211.744 342.052C246.92 283.771 323.798 162.295 323.257 157.767C322.486 151.305 321.985 144.56 320.453 138.353C316.683 123.076 312.092 108.235 304.54 94.3353C299.406 84.8869 293.139 75.5353 285.635 67.8044C264.259 45.7849 234.9 31.5923 204.238 28.6622C166.308 28.0559 90.5089 28.707 90.2751 28.611Z" fill="#0D85F2"/>
<path d="M117.108 28.611C-0.28797 -16.0771 -0.28797 -16.0771 117.108 28.611V28.611Z" fill="#0D85F2"/>
</g>
<defs>
<clipPath id="clip0_26_3">
<rect width="404" height="404" fill="white"/>
</clipPath>
</defs>
</svg>
